<mxfile host="app.diagrams.net" modified="2022-06-02T01:04:23.292Z" agent="5.0 (Windows NT 10.0; Win64; x64) AppleWebKit/537.36 (KHTML, like Gecko) Chrome/101.0.4951.64 Safari/537.36 Edg/101.0.1210.53" etag="aoLvVIGyFAYLVEvZ7BTf" version="18.2.0" type="github">
  <diagram id="TyLm1pHFNK_m3QiEtzG-" name="第 1 页">
    <mxGraphModel dx="1038" dy="579" grid="1" gridSize="10" guides="1" tooltips="1" connect="1" arrows="1" fold="1" page="1" pageScale="1" pageWidth="20000" pageHeight="20000" math="0" shadow="0">
      <root>
        <mxCell id="0" />
        <mxCell id="1" parent="0" />
        <mxCell id="2iXwLtOVIeNkhp_sDEzu-1" value="" style="shape=table;startSize=0;container=1;collapsible=0;childLayout=tableLayout;" parent="1" vertex="1">
          <mxGeometry x="340" y="370" width="480" height="40" as="geometry" />
        </mxCell>
        <mxCell id="2iXwLtOVIeNkhp_sDEzu-2" value="" style="shape=tableRow;horizontal=0;startSize=0;swimlaneHead=0;swimlaneBody=0;top=0;left=0;bottom=0;right=0;collapsible=0;dropTarget=0;fillColor=none;points=[[0,0.5],[1,0.5]];portConstraint=eastwest;" parent="2iXwLtOVIeNkhp_sDEzu-1" vertex="1">
          <mxGeometry width="480" height="40" as="geometry" />
        </mxCell>
        <mxCell id="2iXwLtOVIeNkhp_sDEzu-3" value="head" style="shape=partialRectangle;html=1;whiteSpace=wrap;connectable=0;overflow=hidden;fillColor=none;top=0;left=0;bottom=0;right=0;pointerEvents=1;" parent="2iXwLtOVIeNkhp_sDEzu-2" vertex="1">
          <mxGeometry width="60" height="40" as="geometry">
            <mxRectangle width="60" height="40" as="alternateBounds" />
          </mxGeometry>
        </mxCell>
        <mxCell id="2iXwLtOVIeNkhp_sDEzu-4" value="liistNode" style="shape=partialRectangle;html=1;whiteSpace=wrap;connectable=0;overflow=hidden;fillColor=none;top=0;left=0;bottom=0;right=0;pointerEvents=1;" parent="2iXwLtOVIeNkhp_sDEzu-2" vertex="1">
          <mxGeometry x="60" width="60" height="40" as="geometry">
            <mxRectangle width="60" height="40" as="alternateBounds" />
          </mxGeometry>
        </mxCell>
        <mxCell id="2iXwLtOVIeNkhp_sDEzu-5" value="&lt;span style=&quot;&quot;&gt;liistNode&lt;/span&gt;" style="shape=partialRectangle;html=1;whiteSpace=wrap;connectable=0;overflow=hidden;fillColor=none;top=0;left=0;bottom=0;right=0;pointerEvents=1;" parent="2iXwLtOVIeNkhp_sDEzu-2" vertex="1">
          <mxGeometry x="120" width="60" height="40" as="geometry">
            <mxRectangle width="60" height="40" as="alternateBounds" />
          </mxGeometry>
        </mxCell>
        <mxCell id="2iXwLtOVIeNkhp_sDEzu-6" value="&#xa;&lt;span style=&quot;color: rgb(0, 0, 0); font-family: Helvetica; font-size: 12px; font-style: normal; font-variant-ligatures: normal; font-variant-caps: normal; font-weight: 400; letter-spacing: normal; orphans: 2; text-align: center; text-indent: 0px; text-transform: none; widows: 2; word-spacing: 0px; -webkit-text-stroke-width: 0px; background-color: rgb(248, 249, 250); text-decoration-thickness: initial; text-decoration-style: initial; text-decoration-color: initial; float: none; display: inline !important;&quot;&gt;liistNode&lt;/span&gt;&#xa;&#xa;" style="shape=partialRectangle;html=1;whiteSpace=wrap;connectable=0;overflow=hidden;fillColor=none;top=0;left=0;bottom=0;right=0;pointerEvents=1;" parent="2iXwLtOVIeNkhp_sDEzu-2" vertex="1">
          <mxGeometry x="180" width="60" height="40" as="geometry">
            <mxRectangle width="60" height="40" as="alternateBounds" />
          </mxGeometry>
        </mxCell>
        <mxCell id="2iXwLtOVIeNkhp_sDEzu-7" value="&#xa;&lt;span style=&quot;color: rgb(0, 0, 0); font-family: Helvetica; font-size: 12px; font-style: normal; font-variant-ligatures: normal; font-variant-caps: normal; font-weight: 400; letter-spacing: normal; orphans: 2; text-align: center; text-indent: 0px; text-transform: none; widows: 2; word-spacing: 0px; -webkit-text-stroke-width: 0px; background-color: rgb(248, 249, 250); text-decoration-thickness: initial; text-decoration-style: initial; text-decoration-color: initial; float: none; display: inline !important;&quot;&gt;liistNode&lt;/span&gt;&#xa;&#xa;" style="shape=partialRectangle;html=1;whiteSpace=wrap;connectable=0;overflow=hidden;fillColor=none;top=0;left=0;bottom=0;right=0;pointerEvents=1;" parent="2iXwLtOVIeNkhp_sDEzu-2" vertex="1">
          <mxGeometry x="240" width="60" height="40" as="geometry">
            <mxRectangle width="60" height="40" as="alternateBounds" />
          </mxGeometry>
        </mxCell>
        <mxCell id="2iXwLtOVIeNkhp_sDEzu-8" value="&#xa;&lt;span style=&quot;color: rgb(0, 0, 0); font-family: Helvetica; font-size: 12px; font-style: normal; font-variant-ligatures: normal; font-variant-caps: normal; font-weight: 400; letter-spacing: normal; orphans: 2; text-align: center; text-indent: 0px; text-transform: none; widows: 2; word-spacing: 0px; -webkit-text-stroke-width: 0px; background-color: rgb(248, 249, 250); text-decoration-thickness: initial; text-decoration-style: initial; text-decoration-color: initial; float: none; display: inline !important;&quot;&gt;liistNode&lt;/span&gt;&#xa;&#xa;" style="shape=partialRectangle;html=1;whiteSpace=wrap;connectable=0;overflow=hidden;fillColor=none;top=0;left=0;bottom=0;right=0;pointerEvents=1;" parent="2iXwLtOVIeNkhp_sDEzu-2" vertex="1">
          <mxGeometry x="300" width="60" height="40" as="geometry">
            <mxRectangle width="60" height="40" as="alternateBounds" />
          </mxGeometry>
        </mxCell>
        <mxCell id="2iXwLtOVIeNkhp_sDEzu-9" value="&#xa;&lt;span style=&quot;color: rgb(0, 0, 0); font-family: Helvetica; font-size: 12px; font-style: normal; font-variant-ligatures: normal; font-variant-caps: normal; font-weight: 400; letter-spacing: normal; orphans: 2; text-align: center; text-indent: 0px; text-transform: none; widows: 2; word-spacing: 0px; -webkit-text-stroke-width: 0px; background-color: rgb(248, 249, 250); text-decoration-thickness: initial; text-decoration-style: initial; text-decoration-color: initial; float: none; display: inline !important;&quot;&gt;liistNode&lt;/span&gt;&#xa;&#xa;" style="shape=partialRectangle;html=1;whiteSpace=wrap;connectable=0;overflow=hidden;fillColor=none;top=0;left=0;bottom=0;right=0;pointerEvents=1;" parent="2iXwLtOVIeNkhp_sDEzu-2" vertex="1">
          <mxGeometry x="360" width="60" height="40" as="geometry">
            <mxRectangle width="60" height="40" as="alternateBounds" />
          </mxGeometry>
        </mxCell>
        <mxCell id="2iXwLtOVIeNkhp_sDEzu-10" value="tail" style="shape=partialRectangle;html=1;whiteSpace=wrap;connectable=0;overflow=hidden;fillColor=none;top=0;left=0;bottom=0;right=0;pointerEvents=1;" parent="2iXwLtOVIeNkhp_sDEzu-2" vertex="1">
          <mxGeometry x="420" width="60" height="40" as="geometry">
            <mxRectangle width="60" height="40" as="alternateBounds" />
          </mxGeometry>
        </mxCell>
        <mxCell id="2iXwLtOVIeNkhp_sDEzu-15" value="" style="endArrow=none;dashed=1;html=1;dashPattern=1 3;strokeWidth=2;rounded=0;exitX=0.024;exitY=1.085;exitDx=0;exitDy=0;exitPerimeter=0;" parent="1" source="2iXwLtOVIeNkhp_sDEzu-2" target="2iXwLtOVIeNkhp_sDEzu-16" edge="1">
          <mxGeometry width="50" height="50" relative="1" as="geometry">
            <mxPoint x="500" y="230" as="sourcePoint" />
            <mxPoint x="440" y="210" as="targetPoint" />
          </mxGeometry>
        </mxCell>
        <mxCell id="2iXwLtOVIeNkhp_sDEzu-16" value="&lt;pre style=&quot;background-color:#ffffff;color:#000000;font-family:&#39;JetBrains Mono&#39;,monospace;font-size:9.8pt;&quot;&gt;&lt;span style=&quot;color:#000080;font-weight:bold;&quot;&gt;typedef struct &lt;/span&gt;&lt;span style=&quot;color:#008080;&quot;&gt;listNode &lt;/span&gt;{&lt;br&gt;    &lt;span style=&quot;color:#000080;font-weight:bold;&quot;&gt;struct &lt;/span&gt;&lt;span style=&quot;color:#008080;&quot;&gt;listNode &lt;/span&gt;*&lt;span style=&quot;color:#660e7a;&quot;&gt;prev&lt;/span&gt;;&lt;br&gt;    &lt;span style=&quot;color:#000080;font-weight:bold;&quot;&gt;struct &lt;/span&gt;&lt;span style=&quot;color:#008080;&quot;&gt;listNode &lt;/span&gt;*&lt;span style=&quot;color:#660e7a;&quot;&gt;next&lt;/span&gt;;&lt;br&gt;    &lt;span style=&quot;color:#000080;font-weight:bold;&quot;&gt;void &lt;/span&gt;*&lt;span style=&quot;color:#660e7a;&quot;&gt;value&lt;/span&gt;;&lt;br&gt;} &lt;span style=&quot;color:#371f80;&quot;&gt;listNode&lt;/span&gt;;&lt;/pre&gt;" style="text;whiteSpace=wrap;html=1;" parent="1" vertex="1">
          <mxGeometry x="250" y="450" width="200" height="110" as="geometry" />
        </mxCell>
        <mxCell id="2iXwLtOVIeNkhp_sDEzu-17" value="&lt;pre style=&quot;background-color:#ffffff;color:#000000;font-family:&#39;JetBrains Mono&#39;,monospace;font-size:9.8pt;&quot;&gt;&lt;span style=&quot;color:#000080;font-weight:bold;&quot;&gt;typedef struct &lt;/span&gt;&lt;span style=&quot;color:#008080;&quot;&gt;list &lt;/span&gt;{&lt;br&gt;    &lt;span style=&quot;color:#371f80;&quot;&gt;listNode &lt;/span&gt;*&lt;span style=&quot;color:#660e7a;&quot;&gt;head&lt;/span&gt;;&lt;br&gt;    &lt;span style=&quot;color:#371f80;&quot;&gt;listNode &lt;/span&gt;*&lt;span style=&quot;color:#660e7a;&quot;&gt;tail&lt;/span&gt;;&lt;br&gt;    &lt;span style=&quot;color:#000080;font-weight:bold;&quot;&gt;void &lt;/span&gt;*(*&lt;span style=&quot;color:#660e7a;&quot;&gt;dup&lt;/span&gt;)(&lt;span style=&quot;color:#000080;font-weight:bold;&quot;&gt;void &lt;/span&gt;*ptr);&lt;br&gt;    &lt;span style=&quot;color:#000080;font-weight:bold;&quot;&gt;void &lt;/span&gt;(*&lt;span style=&quot;color:#660e7a;&quot;&gt;free&lt;/span&gt;)(&lt;span style=&quot;color:#000080;font-weight:bold;&quot;&gt;void &lt;/span&gt;*ptr);&lt;br&gt;    &lt;span style=&quot;color:#000080;font-weight:bold;&quot;&gt;int &lt;/span&gt;(*&lt;span style=&quot;color:#660e7a;&quot;&gt;match&lt;/span&gt;)(&lt;span style=&quot;color:#000080;font-weight:bold;&quot;&gt;void &lt;/span&gt;*ptr, &lt;span style=&quot;color:#000080;font-weight:bold;&quot;&gt;void &lt;/span&gt;*key);&lt;br&gt;    &lt;span style=&quot;color:#000080;font-weight:bold;&quot;&gt;unsigned long &lt;/span&gt;&lt;span style=&quot;color:#660e7a;&quot;&gt;len&lt;/span&gt;;&lt;br&gt;} &lt;span style=&quot;color:#371f80;&quot;&gt;list&lt;/span&gt;;&lt;/pre&gt;" style="text;whiteSpace=wrap;html=1;" parent="1" vertex="1">
          <mxGeometry x="435" y="100" width="290" height="150" as="geometry" />
        </mxCell>
        <mxCell id="2iXwLtOVIeNkhp_sDEzu-18" value="" style="html=1;verticalAlign=bottom;labelBackgroundColor=none;endArrow=open;endFill=0;dashed=1;rounded=0;entryX=0.285;entryY=0.504;entryDx=0;entryDy=0;entryPerimeter=0;" parent="1" source="2iXwLtOVIeNkhp_sDEzu-17" target="2iXwLtOVIeNkhp_sDEzu-20" edge="1">
          <mxGeometry width="160" relative="1" as="geometry">
            <mxPoint x="150" y="510" as="sourcePoint" />
            <mxPoint x="310" y="510" as="targetPoint" />
          </mxGeometry>
        </mxCell>
        <mxCell id="2iXwLtOVIeNkhp_sDEzu-20" value="" style="shape=curlyBracket;whiteSpace=wrap;html=1;rounded=1;rotation=90;size=0.5;" parent="1" vertex="1">
          <mxGeometry x="556.62" y="100" width="46.77" height="471.74" as="geometry" />
        </mxCell>
      </root>
    </mxGraphModel>
  </diagram>
</mxfile>
